<mxfile host="Electron" modified="2023-07-30T12:31:15.691Z" agent="Mozilla/5.0 (Macintosh; Intel Mac OS X 10_15_7) AppleWebKit/537.36 (KHTML, like Gecko) draw.io/21.6.5 Chrome/114.0.5735.243 Electron/25.3.1 Safari/537.36" etag="9Ze5A8YEdgLnZSZoASza" version="21.6.5" type="device">
  <diagram name="Page-1" id="n620oyV6RLyP52oNheAC">
    <mxGraphModel dx="857" dy="1211" grid="1" gridSize="10" guides="1" tooltips="1" connect="1" arrows="1" fold="1" page="1" pageScale="1" pageWidth="900" pageHeight="500" math="0" shadow="0">
      <root>
        <mxCell id="0" />
        <mxCell id="1" parent="0" />
        <mxCell id="oAjD4wo-Gj819_OsbrGj-1" value="CLASP-DAS" style="swimlane;whiteSpace=wrap;html=1;dashed=1;dashPattern=8 8;swimlaneLine=1;glass=0;rounded=1;shadow=0;" vertex="1" parent="1">
          <mxGeometry x="400" y="-480" width="160" height="210" as="geometry" />
        </mxCell>
        <UserObject label="camd (QHY)" treeRoot="1" id="oAjD4wo-Gj819_OsbrGj-38">
          <mxCell style="whiteSpace=wrap;html=1;align=center;treeFolding=1;treeMoving=1;newEdgeStyle={&quot;edgeStyle&quot;:&quot;elbowEdgeStyle&quot;,&quot;startArrow&quot;:&quot;none&quot;,&quot;endArrow&quot;:&quot;none&quot;};" vertex="1" parent="oAjD4wo-Gj819_OsbrGj-1">
            <mxGeometry x="20" y="40" width="120" height="30" as="geometry" />
          </mxCell>
        </UserObject>
        <UserObject label="pipeline_workerd (QHY)" treeRoot="1" id="oAjD4wo-Gj819_OsbrGj-39">
          <mxCell style="whiteSpace=wrap;html=1;align=center;treeFolding=1;treeMoving=1;newEdgeStyle={&quot;edgeStyle&quot;:&quot;elbowEdgeStyle&quot;,&quot;startArrow&quot;:&quot;none&quot;,&quot;endArrow&quot;:&quot;none&quot;};" vertex="1" parent="oAjD4wo-Gj819_OsbrGj-1">
            <mxGeometry x="20" y="150" width="120" height="40" as="geometry" />
          </mxCell>
        </UserObject>
        <mxCell id="oAjD4wo-Gj819_OsbrGj-55" value="" style="endArrow=classic;html=1;rounded=0;exitX=0.75;exitY=1;exitDx=0;exitDy=0;entryX=0.75;entryY=0;entryDx=0;entryDy=0;" edge="1" parent="oAjD4wo-Gj819_OsbrGj-1" source="oAjD4wo-Gj819_OsbrGj-38" target="oAjD4wo-Gj819_OsbrGj-39">
          <mxGeometry width="50" height="50" relative="1" as="geometry">
            <mxPoint x="50" y="70" as="sourcePoint" />
            <mxPoint x="50" y="150" as="targetPoint" />
          </mxGeometry>
        </mxCell>
        <mxCell id="oAjD4wo-Gj819_OsbrGj-56" value="Image Data" style="edgeLabel;html=1;align=center;verticalAlign=middle;resizable=0;points=[];rotation=-90;" vertex="1" connectable="0" parent="oAjD4wo-Gj819_OsbrGj-55">
          <mxGeometry x="-0.41" relative="1" as="geometry">
            <mxPoint x="10" y="11" as="offset" />
          </mxGeometry>
        </mxCell>
        <mxCell id="oAjD4wo-Gj819_OsbrGj-5" value="CLASP-TCS" style="swimlane;whiteSpace=wrap;html=1;dashed=1;dashPattern=8 8;swimlaneLine=1;glass=0;rounded=1;shadow=0;" vertex="1" parent="1">
          <mxGeometry x="20" y="-480" width="340" height="210" as="geometry" />
        </mxCell>
        <UserObject label="camd (Raptor)" treeRoot="1" id="oAjD4wo-Gj819_OsbrGj-15">
          <mxCell style="whiteSpace=wrap;html=1;align=center;treeFolding=1;treeMoving=1;newEdgeStyle={&quot;edgeStyle&quot;:&quot;elbowEdgeStyle&quot;,&quot;startArrow&quot;:&quot;none&quot;,&quot;endArrow&quot;:&quot;none&quot;};" vertex="1" parent="oAjD4wo-Gj819_OsbrGj-5">
            <mxGeometry x="19.73" y="40" width="120" height="30" as="geometry" />
          </mxCell>
        </UserObject>
        <UserObject label="pipeline_workerd (Raptor)" treeRoot="1" id="oAjD4wo-Gj819_OsbrGj-16">
          <mxCell style="whiteSpace=wrap;html=1;align=center;treeFolding=1;treeMoving=1;newEdgeStyle={&quot;edgeStyle&quot;:&quot;elbowEdgeStyle&quot;,&quot;startArrow&quot;:&quot;none&quot;,&quot;endArrow&quot;:&quot;none&quot;};" vertex="1" parent="oAjD4wo-Gj819_OsbrGj-5">
            <mxGeometry x="19.73" y="150" width="120" height="40" as="geometry" />
          </mxCell>
        </UserObject>
        <UserObject label="opsd" treeRoot="1" id="oAjD4wo-Gj819_OsbrGj-17">
          <mxCell style="whiteSpace=wrap;html=1;align=center;treeFolding=1;treeMoving=1;newEdgeStyle={&quot;edgeStyle&quot;:&quot;elbowEdgeStyle&quot;,&quot;startArrow&quot;:&quot;none&quot;,&quot;endArrow&quot;:&quot;none&quot;};" vertex="1" parent="oAjD4wo-Gj819_OsbrGj-5">
            <mxGeometry x="199.73" y="90" width="120" height="30" as="geometry" />
          </mxCell>
        </UserObject>
        <UserObject label="pipelined" treeRoot="1" id="oAjD4wo-Gj819_OsbrGj-18">
          <mxCell style="whiteSpace=wrap;html=1;align=center;treeFolding=1;treeMoving=1;newEdgeStyle={&quot;edgeStyle&quot;:&quot;elbowEdgeStyle&quot;,&quot;startArrow&quot;:&quot;none&quot;,&quot;endArrow&quot;:&quot;none&quot;};" vertex="1" parent="oAjD4wo-Gj819_OsbrGj-5">
            <mxGeometry x="199.73" y="155" width="120" height="30" as="geometry" />
          </mxCell>
        </UserObject>
        <mxCell id="oAjD4wo-Gj819_OsbrGj-20" value="" style="endArrow=classic;html=1;rounded=0;exitX=0.25;exitY=1;exitDx=0;exitDy=0;entryX=0.25;entryY=0;entryDx=0;entryDy=0;" edge="1" parent="oAjD4wo-Gj819_OsbrGj-5" source="oAjD4wo-Gj819_OsbrGj-15" target="oAjD4wo-Gj819_OsbrGj-16">
          <mxGeometry width="50" height="50" relative="1" as="geometry">
            <mxPoint x="199.73" y="140" as="sourcePoint" />
            <mxPoint x="249.73" y="90" as="targetPoint" />
          </mxGeometry>
        </mxCell>
        <mxCell id="oAjD4wo-Gj819_OsbrGj-21" value="Image Data" style="edgeLabel;html=1;align=center;verticalAlign=middle;resizable=0;points=[];rotation=-90;" vertex="1" connectable="0" parent="oAjD4wo-Gj819_OsbrGj-20">
          <mxGeometry x="-0.41" relative="1" as="geometry">
            <mxPoint x="-10" y="11" as="offset" />
          </mxGeometry>
        </mxCell>
        <mxCell id="oAjD4wo-Gj819_OsbrGj-24" value="" style="edgeStyle=elbowEdgeStyle;elbow=horizontal;endArrow=classic;html=1;curved=0;rounded=0;endSize=8;startSize=8;entryX=1;entryY=0.5;entryDx=0;entryDy=0;exitX=0;exitY=0.5;exitDx=0;exitDy=0;" edge="1" parent="oAjD4wo-Gj819_OsbrGj-5" source="oAjD4wo-Gj819_OsbrGj-18" target="oAjD4wo-Gj819_OsbrGj-16">
          <mxGeometry width="50" height="50" relative="1" as="geometry">
            <mxPoint x="209.73" y="160" as="sourcePoint" />
            <mxPoint x="259.73" y="110" as="targetPoint" />
          </mxGeometry>
        </mxCell>
        <mxCell id="oAjD4wo-Gj819_OsbrGj-25" value="Configuration" style="edgeLabel;html=1;align=center;verticalAlign=middle;resizable=0;points=[];rotation=-90;" vertex="1" connectable="0" parent="oAjD4wo-Gj819_OsbrGj-24">
          <mxGeometry x="0.1593" relative="1" as="geometry">
            <mxPoint x="10" as="offset" />
          </mxGeometry>
        </mxCell>
        <mxCell id="oAjD4wo-Gj819_OsbrGj-26" value="" style="endArrow=classic;html=1;rounded=0;entryX=0.5;entryY=0;entryDx=0;entryDy=0;exitX=0.5;exitY=1;exitDx=0;exitDy=0;" edge="1" parent="oAjD4wo-Gj819_OsbrGj-5" source="oAjD4wo-Gj819_OsbrGj-17" target="oAjD4wo-Gj819_OsbrGj-18">
          <mxGeometry width="50" height="50" relative="1" as="geometry">
            <mxPoint x="119.73" y="250" as="sourcePoint" />
            <mxPoint x="169.73" y="200" as="targetPoint" />
          </mxGeometry>
        </mxCell>
        <mxCell id="oAjD4wo-Gj819_OsbrGj-27" value="Configuration" style="edgeLabel;html=1;align=center;verticalAlign=middle;resizable=0;points=[];" vertex="1" connectable="0" parent="oAjD4wo-Gj819_OsbrGj-26">
          <mxGeometry x="-0.1286" y="-1" relative="1" as="geometry">
            <mxPoint as="offset" />
          </mxGeometry>
        </mxCell>
        <mxCell id="oAjD4wo-Gj819_OsbrGj-34" value="" style="edgeStyle=segmentEdgeStyle;endArrow=classic;html=1;curved=0;rounded=0;endSize=8;startSize=8;entryX=0;entryY=0.5;entryDx=0;entryDy=0;exitX=0.75;exitY=0;exitDx=0;exitDy=0;" edge="1" parent="oAjD4wo-Gj819_OsbrGj-5" source="oAjD4wo-Gj819_OsbrGj-16" target="oAjD4wo-Gj819_OsbrGj-17">
          <mxGeometry width="50" height="50" relative="1" as="geometry">
            <mxPoint x="169.73" y="130" as="sourcePoint" />
            <mxPoint x="179.73" y="110" as="targetPoint" />
            <Array as="points">
              <mxPoint x="109.73" y="105" />
            </Array>
          </mxGeometry>
        </mxCell>
        <mxCell id="oAjD4wo-Gj819_OsbrGj-35" value="Metadata" style="edgeLabel;html=1;align=center;verticalAlign=middle;resizable=0;points=[];" vertex="1" connectable="0" parent="oAjD4wo-Gj819_OsbrGj-34">
          <mxGeometry x="-0.4432" relative="1" as="geometry">
            <mxPoint x="40" y="-17" as="offset" />
          </mxGeometry>
        </mxCell>
        <mxCell id="oAjD4wo-Gj819_OsbrGj-36" value="" style="endArrow=classic;html=1;rounded=0;exitX=0.5;exitY=0;exitDx=0;exitDy=0;entryX=1;entryY=0.5;entryDx=0;entryDy=0;" edge="1" parent="oAjD4wo-Gj819_OsbrGj-5" source="oAjD4wo-Gj819_OsbrGj-17" target="oAjD4wo-Gj819_OsbrGj-15">
          <mxGeometry width="50" height="50" relative="1" as="geometry">
            <mxPoint x="259.73" y="90" as="sourcePoint" />
            <mxPoint x="309.73" y="40" as="targetPoint" />
            <Array as="points">
              <mxPoint x="259.73" y="55" />
            </Array>
          </mxGeometry>
        </mxCell>
        <mxCell id="oAjD4wo-Gj819_OsbrGj-37" value="Configuration" style="edgeLabel;html=1;align=center;verticalAlign=middle;resizable=0;points=[];" vertex="1" connectable="0" parent="oAjD4wo-Gj819_OsbrGj-36">
          <mxGeometry x="-0.2487" relative="1" as="geometry">
            <mxPoint x="-37" y="10" as="offset" />
          </mxGeometry>
        </mxCell>
        <mxCell id="oAjD4wo-Gj819_OsbrGj-61" value="" style="edgeStyle=elbowEdgeStyle;elbow=horizontal;endArrow=classic;html=1;curved=0;rounded=0;endSize=8;startSize=8;entryX=0;entryY=0.5;entryDx=0;entryDy=0;" edge="1" parent="oAjD4wo-Gj819_OsbrGj-5" target="oAjD4wo-Gj819_OsbrGj-39">
          <mxGeometry width="50" height="50" relative="1" as="geometry">
            <mxPoint x="320" y="170" as="sourcePoint" />
            <mxPoint x="370" y="159.62" as="targetPoint" />
          </mxGeometry>
        </mxCell>
        <mxCell id="oAjD4wo-Gj819_OsbrGj-62" value="Configuration" style="edgeLabel;html=1;align=center;verticalAlign=middle;resizable=0;points=[];rotation=-90;" vertex="1" connectable="0" parent="oAjD4wo-Gj819_OsbrGj-61">
          <mxGeometry x="0.1593" relative="1" as="geometry">
            <mxPoint x="-6" as="offset" />
          </mxGeometry>
        </mxCell>
        <mxCell id="oAjD4wo-Gj819_OsbrGj-57" value="" style="endArrow=classic;html=1;rounded=0;entryX=0;entryY=0.5;entryDx=0;entryDy=0;" edge="1" parent="1" target="oAjD4wo-Gj819_OsbrGj-38">
          <mxGeometry width="50" height="50" relative="1" as="geometry">
            <mxPoint x="280" y="-425" as="sourcePoint" />
            <mxPoint x="380" y="-270" as="targetPoint" />
          </mxGeometry>
        </mxCell>
        <mxCell id="oAjD4wo-Gj819_OsbrGj-58" value="Configuration" style="edgeLabel;html=1;align=center;verticalAlign=middle;resizable=0;points=[];" vertex="1" connectable="0" parent="oAjD4wo-Gj819_OsbrGj-57">
          <mxGeometry x="-0.2831" relative="1" as="geometry">
            <mxPoint x="30" y="10" as="offset" />
          </mxGeometry>
        </mxCell>
        <mxCell id="oAjD4wo-Gj819_OsbrGj-59" value="" style="edgeStyle=segmentEdgeStyle;endArrow=classic;html=1;curved=0;rounded=0;endSize=8;startSize=8;entryX=1;entryY=0.5;entryDx=0;entryDy=0;exitX=0.25;exitY=0;exitDx=0;exitDy=0;" edge="1" parent="1" source="oAjD4wo-Gj819_OsbrGj-39" target="oAjD4wo-Gj819_OsbrGj-17">
          <mxGeometry width="50" height="50" relative="1" as="geometry">
            <mxPoint x="420" y="-340" as="sourcePoint" />
            <mxPoint x="330" y="-385" as="targetPoint" />
            <Array as="points">
              <mxPoint x="450" y="-375" />
            </Array>
          </mxGeometry>
        </mxCell>
        <mxCell id="oAjD4wo-Gj819_OsbrGj-60" value="Metadata" style="edgeLabel;html=1;align=center;verticalAlign=middle;resizable=0;points=[];" vertex="1" connectable="0" parent="oAjD4wo-Gj819_OsbrGj-59">
          <mxGeometry x="-0.4432" relative="1" as="geometry">
            <mxPoint x="-50" y="-12" as="offset" />
          </mxGeometry>
        </mxCell>
      </root>
    </mxGraphModel>
  </diagram>
</mxfile>
